<svg id="Слой_1" data-name="Слой 1" xmlns="http://www.w3.org/2000/svg" viewBox="0 0 129 40.79"><defs><style>.cls-1{fill:#00574b}</style></defs><path class="cls-1" d="M26.9 2.34h-1.16L25.28.87H3.07l-.46 1.47H1.44l-1 3.18h1.42l3.71 34.73h17.2l3.72-34.73h1.39zm-5.54 36.21H7l-3.42-32h21.2z"/><path class="cls-1" d="M6.38 17.36h15.58l.84-7.87H5.54l.84 7.87zM7.39 26.82h13.55l.85-7.87H6.55l.84 7.87zM8.4 36.29h11.54l.83-7.88H7.56l.84 7.88zM47.4 17.6a9.2 9.2 0 01-3.82.76 10.07 10.07 0 01-3.65-.65A8.46 8.46 0 0135.11 13a9.47 9.47 0 01-.7-3.66 9.35 9.35 0 01.71-3.7 8.39 8.39 0 012-2.83A8.7 8.7 0 0140 1a10.26 10.26 0 013.65-.59 10.44 10.44 0 013.55.64A6.82 6.82 0 0150 2.92l-2.77 2.79a3.39 3.39 0 00-1.51-1.18 5 5 0 00-1.93-.39 4.77 4.77 0 00-2 .4 4.63 4.63 0 00-1.55 1.09 5 5 0 00-1 1.65 5.82 5.82 0 00-.36 2.08 6 6 0 00.36 2.12 4.9 4.9 0 001 1.65 4.6 4.6 0 001.52 1.07 5 5 0 001.95.38 4.53 4.53 0 002.14-.48 4.19 4.19 0 001.47-1.25l2.86 2.69a8.06 8.06 0 01-2.78 2.06M69.77 9.31a9.64 9.64 0 01-.69 3.7 8.52 8.52 0 01-1.94 2.86 8.82 8.82 0 01-3 1.84 10.39 10.39 0 01-3.7.65 10.29 10.29 0 01-3.69-.65 8.88 8.88 0 01-2.94-1.84A8.5 8.5 0 0151.93 13a9.46 9.46 0 01-.7-3.7 9.3 9.3 0 01.7-3.69 8.06 8.06 0 011.93-2.8A8.74 8.74 0 0156.8 1a11.15 11.15 0 017.39 0 8.69 8.69 0 013 1.78 8.08 8.08 0 011.94 2.8 9.48 9.48 0 01.69 3.69m-4.4 0A5.93 5.93 0 0065 7.24a4.76 4.76 0 00-1-1.64 4.46 4.46 0 00-1.54-1.08 4.77 4.77 0 00-2-.4 4.69 4.69 0 00-2 .4A4.56 4.56 0 0057 5.6a4.61 4.61 0 00-1 1.64 6.39 6.39 0 000 4.2 4.89 4.89 0 001 1.67 4.47 4.47 0 001.53 1.1 5.17 5.17 0 003.94 0 4.72 4.72 0 001.53-1.1 4.91 4.91 0 001-1.67 6.1 6.1 0 00.36-2.13M76.57 4.38v3.51h6.59v3.4h-6.59v6.61h-4.06V.87h11.21v3.51h-7.15zM91.29 4.38v3.51h6.59v3.4h-6.59v6.61h-4.06V.87h11.2v3.51h-7.14zM101.66 17.9V.87h11.45v3.46h-7.48v3.23h7.07v3.29h-7.07v3.54h7.91v3.51h-11.88zM116.62 17.91V.88h11.45v3.46h-7.48v3.23h7.07v3.29h-7.07v3.54h7.91v3.51h-11.88zM35.15 40.19V23.16h4.14v13.45h6.59v3.58H35.15zM48.76 23.17h4.14V40.2h-4.14zM67.08 40.19l-6.32-7.84h-.05v7.84h-4.02V23.16h4.02v6.93h.07l6.08-6.93h5.15l-7.33 7.85 7.76 9.18h-5.36zM74.06 40.19V23.16h11.45v3.47h-7.48v3.22h7.07v3.3h-7.07v3.53h7.91v3.51H74.06z"/></svg>